<svg width="239" height="41" viewBox="0 0 239 41" fill="none" xmlns="http://www.w3.org/2000/svg">
<circle opacity="0.1" cx="20.5" cy="20.5" r="20" stroke="white"/>
<path d="M27.3341 15.0401C26.6797 15.5017 25.9552 15.8547 25.1884 16.0856C24.7769 15.6124 24.23 15.277 23.6216 15.1248C23.0132 14.9725 22.3728 15.0108 21.7869 15.2345C21.201 15.4581 20.6979 15.8562 20.3457 16.3751C19.9934 16.894 19.809 17.5085 19.8174 18.1356V18.8189C18.6166 18.85 17.4267 18.5837 16.3536 18.0436C15.2806 17.5035 14.3578 16.7065 13.6674 15.7234C13.6674 15.7234 10.9341 21.8734 17.0841 24.6067C15.6768 25.562 14.0003 26.041 12.3008 25.9734C18.4508 29.3901 25.9674 25.9734 25.9674 18.1151C25.9668 17.9247 25.9485 17.7349 25.9128 17.5479C26.6102 16.8601 27.1023 15.9918 27.3341 15.0401V15.0401Z" stroke="white" stroke-width="1.36667" stroke-linecap="round" stroke-linejoin="round"/>
<circle opacity="0.1" cx="86.5" cy="20.5" r="20" stroke="white"/>
<path d="M89.9171 13.667H87.8671C86.9609 13.667 86.0919 14.027 85.4511 14.6677C84.8104 15.3085 84.4504 16.1775 84.4504 17.0837V19.1337H82.4004V21.867H84.4504V27.3337H87.1837V21.867H89.2337L89.9171 19.1337H87.1837V17.0837C87.1837 16.9024 87.2557 16.7286 87.3839 16.6005C87.512 16.4723 87.6858 16.4003 87.8671 16.4003H89.9171V13.667Z" stroke="white" stroke-width="1.36667" stroke-linecap="round" stroke-linejoin="round"/>
<circle opacity="0.1" cx="152.5" cy="20.5" r="20" stroke="white"/>
<path d="M155.916 13.667H149.083C147.196 13.667 145.666 15.1967 145.666 17.0837V23.917C145.666 25.804 147.196 27.3337 149.083 27.3337H155.916C157.803 27.3337 159.333 25.804 159.333 23.917V17.0837C159.333 15.1967 157.803 13.667 155.916 13.667Z" stroke="white" stroke-width="1.36667" stroke-linecap="round" stroke-linejoin="round"/>
<path d="M155.232 20.0697C155.316 20.6384 155.219 21.2192 154.954 21.7295C154.69 22.2398 154.271 22.6537 153.757 22.9121C153.244 23.1706 152.662 23.2606 152.094 23.1693C151.526 23.0779 151.002 22.8099 150.595 22.4034C150.189 21.9969 149.921 21.4725 149.83 20.9049C149.738 20.3373 149.828 19.7553 150.087 19.2418C150.345 18.7282 150.759 18.3093 151.269 18.0445C151.78 17.7797 152.36 17.6825 152.929 17.7669C153.509 17.8529 154.046 18.1232 154.461 18.5379C154.876 18.9526 155.146 19.4896 155.232 20.0697Z" stroke="white" stroke-width="1.36667" stroke-linecap="round" stroke-linejoin="round"/>
<path d="M156.258 16.7412H156.264" stroke="white" stroke-width="1.36667" stroke-linecap="round" stroke-linejoin="round"/>
<circle opacity="0.1" cx="218.5" cy="20.5" r="20" stroke="white"/>
<path d="M221.8 18.1992C222.914 18.1992 223.982 18.6417 224.769 19.4294C225.557 20.217 226 21.2853 226 22.3992V27.2992H223.2V22.3992C223.2 22.0279 223.052 21.6718 222.79 21.4093C222.527 21.1467 222.171 20.9992 221.8 20.9992C221.428 20.9992 221.072 21.1467 220.81 21.4093C220.547 21.6718 220.4 22.0279 220.4 22.3992V27.2992H217.6V22.3992C217.6 21.2853 218.042 20.217 218.83 19.4294C219.617 18.6417 220.686 18.1992 221.8 18.1992V18.1992Z" stroke="white" stroke-linecap="round" stroke-linejoin="round"/>
<path d="M214.8 18.9004H212V27.3004H214.8V18.9004Z" stroke="white" stroke-linecap="round" stroke-linejoin="round"/>
<path d="M213.4 16.8C214.173 16.8 214.8 16.1732 214.8 15.4C214.8 14.6268 214.173 14 213.4 14C212.627 14 212 14.6268 212 15.4C212 16.1732 212.627 16.8 213.4 16.8Z" stroke="white" stroke-linecap="round" stroke-linejoin="round"/>
</svg>
